# xmcd CD database file
#
# Track frame offsets:
#	183
#	15073
#	28450
#	42968
#	59150
#	76268
#	88275
#	107153
#	127978
#	142348
#	157325
#	176903
#	192123
#
# Disc length: 2763 seconds
#
# Revision: 4
# Processed by: cddbd v1.5.2PL0 Copyright (c) Steve Scherf et al.
# Submitted via: jetAudio 5
#
DISCID=bc0ac90d
DTITLE=Various Artist - Sax For Lovers - Vol 1
DYEAR=1900
DGENRE=Jazz
TTITLE0=How Deep Is Your Love?
TTITLE1=Mandy
TTITLE2=Too Much Heaven
TTITLE3=Feelings
TTITLE4=I Write the Songs
TTITLE5=Ti Amo
TTITLE6=Don't Cry For Me Argentine
TTITLE7=My Way
TTITLE8=It's My Turn
TTITLE9=The Way We Were
TTITLE10=Just The Way You Are
TTITLE11=My Love
TTITLE12=Don't Fall In Love with a Dreamer
EXTD=
EXTT0=
EXTT1=
EXTT2=
EXTT3=
EXTT4=
EXTT5=
EXTT6=
EXTT7=
EXTT8=
EXTT9=
EXTT10=
EXTT11=
EXTT12=
PLAYORDER=
